HIERARCHY
ROOT Hips
{
	OFFSET 0.00000 0.00000 0.00000
	CHANNELS 6 Xposition Yposition Zposition Zrotation Yrotation Xrotation 
	JOINT LHipJoint
	{
		OFFSET 0 0 0
		CHANNELS 3 Zrotation Yrotation Xrotation
		JOINT LeftUpLeg
		{
			OFFSET 1.38280 -1.96574 0.54427
			CHANNELS 3 Zrotation Yrotation Xrotation
			JOINT LeftLeg
			{
				OFFSET 2.72096 -7.47578 0.00000
				CHANNELS 3 Zrotation Yrotation Xrotation
				JOINT LeftFoot
				{
					OFFSET 2.73041 -7.50176 0.00000
					CHANNELS 3 Zrotation Yrotation Xrotation
					JOINT LeftToeBase
					{
						OFFSET 0.16150 -0.44371 2.18031
						CHANNELS 3 Zrotation Yrotation Xrotation
						End Site
						{
							OFFSET 0.00000 -0.00000 1.12127
						}
					}
				}
			}
		}
	}
	JOINT RHipJoint
	{
		OFFSET 0 0 0
		CHANNELS 3 Zrotation Yrotation Xrotation
		JOINT RightUpLeg
		{
			OFFSET -1.57224 -1.96575 0.54427
			CHANNELS 3 Zrotation Yrotation Xrotation
			JOINT RightLeg
			{
				OFFSET -2.95935 -8.13076 0.00000
				CHANNELS 3 Zrotation Yrotation Xrotation
				JOINT RightFoot
				{
					OFFSET -2.52345 -6.93311 0.00000
					CHANNELS 3 Zrotation Yrotation Xrotation
					JOINT RightToeBase
					{
						OFFSET -0.04475 -0.10171 1.86688
						CHANNELS 3 Zrotation Yrotation Xrotation
						End Site
						{
							OFFSET -0.00000 -0.00000 0.95157
						}
					}
				}
			}
		}
	}
	JOINT LowerBack
	{
		OFFSET 0 0 0
		CHANNELS 3 Zrotation Yrotation Xrotation
		JOINT Spine
		{
			OFFSET 0.00669 2.07367 0.09104
			CHANNELS 3 Zrotation Yrotation Xrotation
			JOINT Spine1
			{
				OFFSET -0.00664 2.06198 -0.04732
				CHANNELS 3 Zrotation Yrotation Xrotation
				JOINT Neck
				{
					OFFSET 0 0 0
					CHANNELS 3 Zrotation Yrotation Xrotation
					JOINT Neck1
					{
						OFFSET -0.00021 1.49948 0.16345
						CHANNELS 3 Zrotation Yrotation Xrotation
						JOINT Head
						{
							OFFSET 0.06080 1.50567 -0.26702
							CHANNELS 3 Zrotation Yrotation Xrotation
							End Site
							{
								OFFSET 0.01726 1.56470 -0.11854
							}
						}
					}
				}
				JOINT LeftShoulder
				{
					OFFSET 0 0 0
					CHANNELS 3 Zrotation Yrotation Xrotation
					JOINT LeftArm
					{
						OFFSET 3.14993 0.82932 -0.22488
						CHANNELS 3 Zrotation Yrotation Xrotation
						JOINT LeftForeArm
						{
							OFFSET 5.68236 -0.00000 -0.00000
							CHANNELS 3 Zrotation Yrotation Xrotation
							JOINT LeftHand
							{
								OFFSET 3.17112 -0.00000 0.00000
								CHANNELS 3 Zrotation Yrotation Xrotation
								JOINT LeftFingerBase
								{
									OFFSET 0 0 0
									CHANNELS 3 Zrotation Yrotation Xrotation
									JOINT LeftHandIndex1
									{
										OFFSET 0.63269 -0.00000 0.00000
										CHANNELS 3 Zrotation Yrotation Xrotation
										End Site
										{
											OFFSET 0.51009 -0.00000 0.00000
										}
									}
								}
								JOINT LThumb
								{
									OFFSET 0 0 0
									CHANNELS 3 Zrotation Yrotation Xrotation
									End Site
									{
										OFFSET 0.51788 -0.00000 0.51788
									}
								}
							}
						}
					}
				}
				JOINT RightShoulder
				{
					OFFSET 0 0 0
					CHANNELS 3 Zrotation Yrotation Xrotation
					JOINT RightArm
					{
						OFFSET -3.10571 0.91279 -0.33334
						CHANNELS 3 Zrotation Yrotation Xrotation
						JOINT RightForeArm
						{
							OFFSET -5.87120 -0.00000 -0.00000
							CHANNELS 3 Zrotation Yrotation Xrotation
							JOINT RightHand
							{
								OFFSET -3.37589 -0.00000 0.00000
								CHANNELS 3 Zrotation Yrotation Xrotation
								JOINT RightFingerBase
								{
									OFFSET 0 0 0
									CHANNELS 3 Zrotation Yrotation Xrotation
									JOINT RightHandIndex1
									{
										OFFSET -0.60326 -0.00000 0.00000
										CHANNELS 3 Zrotation Yrotation Xrotation
										End Site
										{
											OFFSET -0.48636 -0.00000 0.00000
										}
									}
								}
								JOINT RThumb
								{
									OFFSET 0 0 0
									CHANNELS 3 Zrotation Yrotation Xrotation
									End Site
									{
										OFFSET -0.49379 -0.00000 0.49379
									}
								}
							}
						}
					}
				}
			}
		}
	}
}
MOTION
Frames: 7
Frame Time: .0083333
20.9755 18.6015 -2.2795 1268.1800 261.6710 -1258.3600 0.0000 0.0000 0.0000 -18.7780 -10.5747 -15.8655 1.5564 7.8734 22.3303 1.2268 0.7143 -21.2074 0.0222 -0.9626 -2.6458 0.0000 0.0000 0.0000 16.0808 16.3553 -12.2583 -1.6629 -8.1255 23.0959 -0.8565 9.5375 -16.8238 -3.9810 -12.1350 36.2114 -1.2045 -3.3934 -9.7270 2.5299 -4.6019 2.4688 2.5768 -2.3807 8.3943 -6.8036 -1.3658 -17.4283 2.2886 -0.8346 24.1608 1.8284 -0.8384 10.7023 0.0000 -0.0000 0.0000 -92.5908 -43.3731 54.7242 18.7277 -29.0790 -4.8978 -0.0000 0.0000 -22.7495 17.7295 41.0138 11.8491 -7.1250 0.0000 -0.0000 -28.1220 70.5578 -17.6059 0.0000 -0.0000 0.0000 79.9291 1.1280 32.5038 -35.1123 44.8921 -14.8925 0.0000 -0.0000 -12.3950 -34.6894 23.6797 -15.5352 7.1250 -0.0000 -0.0000 -3.3110 -1.9476 -3.2019
20.9613 18.6016 -2.2925 1268.3800 261.8370 -1258.6400 0.0000 0.0000 0.0000 -18.7722 -10.4474 -15.7082 1.5507 7.8597 22.2889 1.2429 0.7046 -21.3408 0.0210 -0.9345 -2.5687 0.0000 0.0000 0.0000 16.1465 16.1622 -12.2142 -1.6644 -8.1290 23.1067 -0.8212 9.5404 -16.5053 -3.9747 -12.1267 36.1816 -1.1924 -3.3872 -9.6634 2.2857 -4.5723 2.4795 2.3196 -2.3567 8.3440 -6.6498 -1.3190 -17.5746 2.5801 -0.8756 24.1401 1.9025 -0.8040 10.7229 -0.0000 0.0000 0.0000 -92.3913 -40.7295 53.4668 18.3139 -28.5573 -4.6983 -0.0000 0.0000 -22.6576 19.0012 40.6594 12.6458 -7.1250 0.0000 -0.0000 -26.0128 70.6816 -16.2954 -0.0000 0.0000 0.0000 80.8299 0.7957 33.2624 -34.5130 44.4612 -14.4712 0.0000 -0.0000 -11.9356 -34.5509 24.0104 -15.6523 7.1250 -0.0000 -0.0000 -3.1665 -1.6116 -3.0810
20.9458 18.6021 -2.3053 1268.5000 262.0200 -1258.8200 0.0000 0.0000 0.0000 -18.7507 -10.3116 -15.5690 1.5453 7.8466 22.2492 1.2574 0.7275 -21.4720 0.0223 -0.9647 -2.6516 0.0000 0.0000 0.0000 16.2222 16.0008 -12.1732 -1.6653 -8.1310 23.1128 -0.7881 9.5474 -16.2027 -3.9661 -12.1151 36.1404 -1.1698 -3.3629 -9.6116 2.0394 -4.5198 2.4739 2.0584 -2.3212 8.2810 -6.4910 -1.2779 -17.6652 2.8874 -0.9365 24.1102 1.9784 -0.7768 10.7305 0.0000 0.0000 0.0000 -92.0591 -38.0830 52.3264 17.9184 -28.0525 -4.5108 -0.0000 0.0000 -22.8956 20.5630 40.3592 13.6544 -7.1250 0.0000 -0.0000 -23.6153 70.9436 -14.8718 0.0000 0.0000 0.0000 81.7481 0.4380 33.8899 -33.8413 43.9668 -14.0028 0.0000 -0.0000 -11.1993 -34.5783 24.4519 -15.9245 7.1250 -0.0000 -0.0000 -3.1003 -1.1064 -3.0444
20.9292 18.6029 -2.3177 1268.5900 262.2250 -1258.9600 0.0000 0.0000 0.0000 -18.7214 -10.1498 -15.4572 1.5408 7.8357 22.2161 1.2705 0.7549 -21.5930 0.0252 -1.0252 -2.8182 0.0000 0.0000 0.0000 16.3019 15.8783 -12.1356 -1.6654 -8.1312 23.1133 -0.7572 9.5625 -15.9185 -3.9547 -12.0998 36.0861 -1.1550 -3.3189 -9.5822 1.8011 -4.4411 2.4657 1.8136 -2.2738 8.2288 -6.3306 -1.2469 -17.7260 3.1954 -1.0158 24.0695 2.0515 -0.7579 10.7299 0.0000 -0.0000 0.0000 -91.6789 -35.4404 51.2405 17.5317 -27.5534 -4.3304 -0.0000 0.0000 -23.1570 22.1474 40.1244 14.6979 -7.1250 0.0000 -0.0000 -21.2463 71.2683 -13.4855 0.0000 -0.0000 0.0000 82.6603 0.0755 34.3793 -33.1325 43.4316 -13.5130 0.0000 -0.0000 -10.2575 -34.8303 24.9155 -16.3374 7.1250 -0.0000 -0.0000 -3.1621 -0.5141 -3.1384
20.9121 18.6034 -2.3299 1268.6800 262.4460 -1259.1000 0.0000 0.0000 0.0000 -18.6901 -9.9695 -15.3637 1.5373 7.8273 22.1908 1.2837 0.7615 -21.7062 0.0275 -1.0713 -2.9450 0.0000 0.0000 0.0000 16.3822 15.7783 -12.1018 -1.6649 -8.1300 23.1097 -0.7276 9.5834 -15.6441 -3.9425 -12.0835 36.0281 -1.1543 -3.2577 -9.5763 1.5790 -4.3396 2.4627 1.5966 -2.2168 8.1982 -6.1866 -1.2323 -17.7670 3.4911 -1.1116 24.0166 2.1203 -0.7499 10.7224 0.0000 -0.0000 0.0000 -91.3018 -32.8149 50.1239 17.1497 -27.0547 -4.1552 -0.0000 0.0000 -23.2118 23.5397 39.9209 15.6189 -7.1250 0.0000 -0.0000 -19.1220 71.5558 -12.2249 0.0000 -0.0000 0.0000 83.5362 -0.2933 34.7493 -32.4370 42.8928 -13.0373 0.0000 -0.0000 -9.2554 -35.1943 25.2868 -16.7653 7.1250 -0.0000 -0.0000 -3.3052 0.0078 -3.3112
20.8947 18.6035 -2.3419 1268.7800 262.6800 -1259.2300 0.0000 0.0000 0.0000 -18.6558 -9.8049 -15.2704 1.5346 7.8208 22.1712 1.3000 0.7530 -21.8391 0.0281 -1.0818 -2.9739 0.0000 0.0000 0.0000 16.4623 15.6829 -12.0773 -1.6642 -8.1285 23.1052 -0.6978 9.6035 -15.3628 -3.9321 -12.0695 35.9784 -1.1565 -3.1785 -9.5897 1.3735 -4.2155 2.4627 1.4014 -2.1498 8.1837 -6.0859 -1.2386 -17.7928 3.7769 -1.2231 23.9637 2.1904 -0.7547 10.7138 0.0000 -0.0000 0.0000 -90.9402 -30.2179 48.9027 16.7683 -26.5513 -3.9832 -0.0000 0.0000 -22.9841 24.6833 39.6596 16.3477 -7.1250 0.0000 -0.0000 -17.1998 71.7045 -11.0287 0.0000 -0.0000 0.0000 84.3586 -0.6847 35.0179 -31.7881 42.3776 -12.5978 0.0000 -0.0000 -8.3000 -35.4915 25.4893 -17.0594 7.1250 -0.0000 -0.0000 -3.4402 0.3224 -3.4658
20.8769 18.6030 -2.3539 1268.9200 262.9200 -1259.4000 0.0000 0.0000 0.0000 -18.6231 -9.6810 -15.1604 1.5326 7.8158 22.1560 1.3215 0.7450 -22.0137 0.0269 -1.0581 -2.9087 0.0000 0.0000 0.0000 16.5383 15.5908 -12.0534 -1.6636 -8.1270 23.1006 -0.6680 9.6225 -15.0788 -3.9245 -12.0592 35.9417 -1.1535 -3.0790 -9.6159 1.1773 -4.0660 2.4634 1.2168 -2.0705 8.1777 -6.0500 -1.2700 -17.8109 4.0674 -1.3535 23.9253 2.2706 -0.7742 10.7113 -0.0000 0.0000 0.0000 -90.5996 -27.6598 47.4990 16.3807 -26.0341 -3.8115 -0.0000 0.0000 -22.4830 25.5814 39.2389 16.8472 -7.1250 0.0000 -0.0000 -15.3636 71.6177 -9.8044 -0.0000 0.0000 0.0000 85.1324 -1.1040 35.1792 -31.1849 41.8877 -12.1931 0.0000 -0.0000 -7.4141 -35.6144 25.5421 -17.1635 7.1250 -0.0000 -0.0000 -3.5019 0.4180 -3.5339
